<svg fill="none" height="40" viewBox="0 0 40 40" width="40" xmlns="http://www.w3.org/2000/svg" xmlns:xlink="http://www.w3.org/1999/xlink"><mask id="a" height="22" maskUnits="userSpaceOnUse" width="32" x="4" y="9"><path d="m35.2 9.17261h-30.40001v21.65459h30.40001z" fill="#fff"/></mask><g mask="url(#a)"><path d="m13.2908 30.8224 9.0736.0048c7.4276.0041 12.7909-4.2423 12.7946-10.8156s-5.356-10.82999-12.7827-10.83408l-9.0736-.00491v.04788c.0487-.04788 5.7485 5.20911 5.7485 5.20911l3.0649.0016c4.1367.0025 7.3701 1.611 7.368 5.5787-.0019 3.9678-3.2374 5.5726-7.3742 5.5705l-3.0685-.0016-5.7522 5.246.0012-.0021z" fill="#103b4d"/><path d="m13.2757 14.2994c1.6442 2.464 3.8604 4.1731 6.6052 5.1776l1.496.5183-1.4965.5164c-2.7459 1.0004-4.8373 2.7084-6.6108 5.1706-1.6441-2.4638-3.86048-4.1731-6.60522-5.1776l-1.49598-.5181 1.49638-.5166c2.74597-1.0002 4.96392-2.7082 6.61092-5.1706z" fill="#276fff"/></g></svg>